<?xml version="1.0" standalone="no"?>
<!DOCTYPE svg PUBLIC "-//W3C//DTD SVG 20010904//EN"
 "http://www.w3.org/TR/2001/REC-SVG-20010904/DTD/svg10.dtd">
<svg version="1.0" xmlns="http://www.w3.org/2000/svg"
 width="966.000000pt" height="966.000000pt" viewBox="0 0 966.000000 966.000000"
 preserveAspectRatio="xMidYMid meet">
<metadata>
Created by potrace 1.11, written by Peter Selinger 2001-2013
</metadata>
<g transform="translate(0.000000,966.000000) scale(0.100000,-0.100000)"
fill="#000000" stroke="none">
<path d="M4747 9524 c-1 -1 -72 -5 -157 -8 -85 -4 -168 -9 -185 -10 -16 -2
-61 -6 -100 -10 -38 -4 -97 -11 -130 -16 -33 -5 -78 -12 -100 -14 -22 -3 -87
-15 -145 -26 -58 -12 -118 -24 -135 -27 -148 -25 -534 -146 -755 -235 -517
-210 -1017 -528 -1418 -903 -179 -167 -391 -397 -512 -555 -19 -25 -37 -47
-40 -50 -16 -14 -160 -220 -160 -228 0 -6 -4 -12 -8 -14 -9 -3 -132 -194 -132
-204 0 -3 -8 -18 -19 -32 -35 -52 -184 -332 -175 -332 3 0 -2 -7 -10 -16 -9
-8 -16 -24 -16 -34 0 -10 -4 -21 -8 -24 -5 -3 -33 -63 -61 -133 -29 -70 -57
-137 -61 -148 -29 -69 -122 -352 -135 -409 -1 -6 -5 -18 -8 -26 -20 -50 -98
-415 -111 -520 -3 -25 -8 -56 -10 -70 -7 -37 -15 -107 -22 -180 -3 -36 -8 -81
-10 -100 -9 -70 -12 -597 -4 -690 4 -52 11 -126 14 -165 3 -38 8 -81 10 -95 3
-14 7 -43 10 -65 2 -22 10 -71 16 -110 7 -38 14 -83 17 -100 4 -25 15 -79 38
-185 1 -8 8 -33 13 -55 6 -22 13 -51 16 -65 10 -50 56 -212 66 -230 5 -10 10
-26 10 -35 0 -15 94 -278 126 -352 8 -18 20 -48 28 -65 35 -86 96 -214 150
-318 33 -63 65 -125 70 -137 6 -13 14 -23 19 -23 4 0 7 -5 7 -10 0 -43 327
-519 469 -683 369 -428 740 -747 1179 -1013 87 -53 362 -204 372 -204 3 0 43
-18 89 -41 154 -75 418 -174 676 -252 56 -17 284 -73 330 -81 17 -3 41 -8 55
-11 29 -6 122 -22 165 -29 17 -3 44 -7 60 -10 17 -3 57 -8 90 -11 33 -3 67 -7
75 -10 8 -2 56 -7 105 -10 50 -4 106 -8 125 -11 52 -5 506 -5 570 0 30 3 87 8
125 11 39 3 88 8 110 10 22 3 58 7 80 10 60 7 112 14 200 30 44 8 94 17 112
20 17 3 71 14 120 26 48 12 98 23 111 25 13 3 92 24 175 49 647 187 1263 524
1772 968 73 64 378 366 431 427 302 349 515 668 704 1055 109 222 168 367 242
590 95 288 173 639 204 920 3 33 8 74 10 90 19 161 25 602 11 785 -29 359 -78
641 -168 959 -37 131 -87 285 -108 336 -5 11 -15 36 -22 55 -56 154 -183 426
-281 604 -309 556 -769 1084 -1282 1470 -468 353 -993 615 -1531 765 -60 17
-123 35 -140 40 -16 5 -57 15 -90 21 -33 6 -73 15 -90 20 -16 5 -46 11 -65 14
-19 3 -46 8 -60 11 -28 6 -125 22 -185 30 -22 3 -51 8 -65 10 -14 2 -56 7 -95
10 -38 4 -80 8 -93 10 -41 7 -469 23 -475 19z"/>
</g>
</svg>
